<svg xmlns="http://www.w3.org/2000/svg" xmlns:xlink="http://www.w3.org/1999/xlink" viewBox="0 0 430 430" width="430" height="430" preserveAspectRatio="xMidYMid meet" style="width: 100%; height: 100%; transform: translate3d(0px, 0px, 0px); content-visibility: visible;"><defs><clipPath id="__lottie_element_2"><rect width="430" height="430" x="0" y="0"/></clipPath><clipPath id="__lottie_element_4"><path d="M0,0 L430,0 L430,430 L0,430z"/></clipPath></defs><g clip-path="url(#__lottie_element_2)"><g clip-path="url(#__lottie_element_4)" transform="matrix(1,0,0,1,0,0)" opacity="1" style="display: block;"><g transform="matrix(1,0,0,1,-49.000091552734375,-20.999908447265625)" opacity="1" style="display: block;"><g opacity="1" transform="matrix(1,0,0,1,372.9360046386719,297.2640075683594)"><path class="secondary" fill="rgb(198,110,21)" fill-opacity="1" d=" M50.65999984741211,-36.69499969482422 C50.65999984741211,-36.69499969482422 50.65999984741211,36.69499969482422 50.65999984741211,36.69499969482422 C50.65999984741211,36.69499969482422 -50.599998474121094,36.69499969482422 -50.599998474121094,36.69499969482422 C-50.599998474121094,36.69499969482422 -50.65999984741211,-36.69499969482422 -50.65999984741211,-36.69499969482422 C-50.65999984741211,-36.69499969482422 50.65999984741211,-36.69499969482422 50.65999984741211,-36.69499969482422z"/></g><g opacity="1" transform="matrix(1,0,0,1,372.9360046386719,221.1439971923828)"><path class="quaternary" fill="rgb(235,230,239)" fill-opacity="1" d=" M50.65999984741211,39.42499923706055 C50.65999984741211,39.42499923706055 -50.65999984741211,39.42499923706055 -50.65999984741211,39.42499923706055 C-50.65999984741211,39.42499923706055 -50.65999984741211,-39.42499923706055 -50.65999984741211,-39.42499923706055 C-50.65999984741211,-39.42499923706055 -10.680000305175781,-39.42499923706055 -10.680000305175781,-39.42499923706055 C4.340000152587891,-39.42499923706055 18,-30.735000610351562 24.31999969482422,-17.155000686645508 C24.31999969482422,-17.155000686645508 50.65999984741211,39.42499923706055 50.65999984741211,39.42499923706055z"/></g><g opacity="0.5" transform="matrix(1,0,0,1,330.406005859375,297.2640075683594)" style="mix-blend-mode: multiply;"><path class="secondary" fill="rgb(198,110,21)" fill-opacity="1" d=" M8.130000114440918,36.69499969482422 C8.130000114440918,36.69499969482422 -8.069999694824219,36.69499969482422 -8.069999694824219,36.69499969482422 C-8.069999694824219,36.69499969482422 -8.130000114440918,-36.69499969482422 -8.130000114440918,-36.69499969482422 C-8.130000114440918,-36.69499969482422 8.069999694824219,-36.69499969482422 8.069999694824219,-36.69499969482422 C8.069999694824219,-36.69499969482422 8.130000114440918,36.69499969482422 8.130000114440918,36.69499969482422z"/></g><g opacity="0.5" transform="matrix(1,0,0,1,330.3760070800781,221.1439971923828)" style="mix-blend-mode: multiply;"><path class="quaternary" fill="rgb(235,230,239)" fill-opacity="1" d=" M8.100000381469727,-39.42499923706055 C8.100000381469727,-39.42499923706055 8.100000381469727,39.42499923706055 8.100000381469727,39.42499923706055 C8.100000381469727,39.42499923706055 -8.100000381469727,39.42499923706055 -8.100000381469727,39.42499923706055 C-8.100000381469727,39.42499923706055 -8.100000381469727,-39.42499923706055 -8.100000381469727,-39.42499923706055 C-8.100000381469727,-39.42499923706055 8.100000381469727,-39.42499923706055 8.100000381469727,-39.42499923706055z"/></g><g opacity="1" transform="matrix(1,0,0,1,212.75399780273438,235.64700317382812)"><path class="quinary" fill="rgb(255,199,56)" fill-opacity="1" d=" M-73.677001953125,98.31600189208984 C-73.677001953125,98.31600189208984 -109.4530029296875,98.31600189208984 -109.4530029296875,98.31600189208984 C-109.4530029296875,98.31600189208984 -109.4530029296875,-98.31600189208984 -109.4530029296875,-98.31600189208984 C-109.4530029296875,-98.31600189208984 109.4530029296875,-98.31600189208984 109.4530029296875,-98.31600189208984 C109.4530029296875,-98.31600189208984 109.4530029296875,-53.933998107910156 109.4530029296875,-53.933998107910156 C109.4530029296875,-53.933998107910156 109.4530029296875,24.92300033569336 109.4530029296875,24.92300033569336 C109.4530029296875,24.92300033569336 109.4530029296875,25.351999282836914 109.4530029296875,25.351999282836914 C109.4530029296875,25.351999282836914 109.4530029296875,98.31600189208984 109.4530029296875,98.31600189208984 C109.4530029296875,98.31600189208984 109.38899993896484,98.31600189208984 109.38899993896484,98.31600189208984 C109.38899993896484,98.31600189208984 -16.260000228881836,98.31600189208984 -16.260000228881836,98.31600189208984"/></g><g opacity="1" transform="matrix(1,0,0,1,263.4490051269531,325.3399963378906)"><path class="senary" fill="rgb(100,110,120)" fill-opacity="1" d=" M160.14700317382812,-8.623000144958496 C160.14700317382812,-8.623000144958496 -160.14700317382812,-8.623000144958496 -160.14700317382812,-8.623000144958496 C-160.14700317382812,-8.623000144958496 -160.14700317382812,8.623000144958496 -160.14700317382812,8.623000144958496 C-160.14700317382812,8.623000144958496 160.14700317382812,8.623000144958496 160.14700317382812,8.623000144958496 C160.14700317382812,8.623000144958496 160.14700317382812,-8.623000144958496 160.14700317382812,-8.623000144958496z"/></g><g opacity="1" transform="matrix(1,0,0,1,212.75399780273438,235.64700317382812)"><path stroke-linecap="round" stroke-linejoin="round" fill-opacity="0" class="primary" stroke="rgb(18,19,49)" stroke-opacity="1" stroke-width="10.5" d=" M210.8419952392578,24.922000885009766 C210.8419952392578,24.922000885009766 210.8419952392578,98.31199645996094 210.8419952392578,98.31199645996094 C210.8419952392578,98.31199645996094 109.58200073242188,98.31199645996094 109.58200073242188,98.31199645996094 C109.58200073242188,98.31199645996094 109.52200317382812,24.922000885009766 109.52200317382812,24.922000885009766 C109.52200317382812,24.922000885009766 210.8419952392578,24.922000885009766 210.8419952392578,24.922000885009766z M210.8419952392578,24.922000885009766 C210.8419952392578,24.922000885009766 109.52200317382812,24.922000885009766 109.52200317382812,24.922000885009766 C109.52200317382812,24.922000885009766 109.52200317382812,-53.928001403808594 109.52200317382812,-53.928001403808594 C109.52200317382812,-53.928001403808594 149.5019989013672,-53.928001403808594 149.5019989013672,-53.928001403808594 C164.52200317382812,-53.928001403808594 178.1820068359375,-45.237998962402344 184.5019989013672,-31.658000946044922 C184.5019989013672,-31.658000946044922 210.8419952392578,24.922000885009766 210.8419952392578,24.922000885009766z M-73.677001953125,98.31600189208984 C-73.677001953125,98.31600189208984 -109.4530029296875,98.31600189208984 -109.4530029296875,98.31600189208984 C-109.4530029296875,98.31600189208984 -109.4530029296875,-98.31600189208984 -109.4530029296875,-98.31600189208984 C-109.4530029296875,-98.31600189208984 109.4530029296875,-98.31600189208984 109.4530029296875,-98.31600189208984 C109.4530029296875,-98.31600189208984 109.4530029296875,-53.933998107910156 109.4530029296875,-53.933998107910156 C109.4530029296875,-53.933998107910156 109.4530029296875,24.92300033569336 109.4530029296875,24.92300033569336 C109.4530029296875,24.92300033569336 109.4530029296875,25.351999282836914 109.4530029296875,25.351999282836914 C109.4530029296875,25.351999282836914 109.4530029296875,98.31600189208984 109.4530029296875,98.31600189208984 C109.4530029296875,98.31600189208984 109.38899993896484,98.31600189208984 109.38899993896484,98.31600189208984 C109.38899993896484,98.31600189208984 -16.260000228881836,98.31600189208984 -16.260000228881836,98.31600189208984"/></g></g><g transform="matrix(1,0,0,1,-49,-21)" opacity="1" style="display: block;"><g opacity="1" transform="matrix(1,0,0,1,169.78599548339844,235.64700317382812)"><path class="secondary" fill="rgb(198,110,21)" fill-opacity="1" d=" M58.2599983215332,-39.60900115966797 C58.2599983215332,-39.60900115966797 105.6719970703125,-3.4189999103546143 105.6719970703125,-3.4189999103546143 C107.7699966430664,-1.8179999589920044 107.77999877929688,1.3370000123977661 105.69200134277344,2.9509999752044678 C105.69200134277344,2.9509999752044678 58.27299880981445,39.5989990234375 58.27299880981445,39.5989990234375 C56.51300048828125,40.95899963378906 53.95800018310547,39.70500183105469 53.95800018310547,37.48099899291992 C53.95800018310547,37.48099899291992 53.95800018310547,20.56100082397461 53.95800018310547,20.56100082397461 C53.95800018310547,19.82200050354004 53.358001708984375,19.222000122070312 52.61899948120117,19.222000122070312 C52.61899948120117,19.222000122070312 -100.55799865722656,19.200000762939453 -100.55799865722656,19.200000762939453 C-104.25499725341797,19.200000762939453 -107.25199890136719,16.20400047302246 -107.25199890136719,12.506999969482422 C-107.25199890136719,12.506999969482422 -107.25199890136719,-12.510000228881836 -107.25199890136719,-12.510000228881836 C-107.25199890136719,-16.207000732421875 -104.25499725341797,-19.202999114990234 -100.55799865722656,-19.202999114990234 C-100.55799865722656,-19.202999114990234 52.61899948120117,-19.180999755859375 52.61899948120117,-19.180999755859375 C53.358001708984375,-19.180999755859375 53.95800018310547,-19.7810001373291 53.95800018310547,-20.520000457763672 C53.95800018310547,-20.520000457763672 53.95800018310547,-37.48099899291992 53.95800018310547,-37.48099899291992 C53.95800018310547,-39.698001861572266 56.49800109863281,-40.95399856567383 58.2599983215332,-39.60900115966797z"/></g><g opacity="0.5" transform="matrix(1,0,0,1,169.7779998779297,255.718994140625)" style="mix-blend-mode: multiply;"><path class="secondary" fill="rgb(198,110,21)" fill-opacity="1" d=" M107.24500274658203,-20.069000244140625 C107.24500274658203,-20.069000244140625 -107.24500274658203,-20.091999053955078 -107.24500274658203,-20.091999053955078 C-107.24500274658203,-20.091999053955078 -107.24500274658203,-7.561999797821045 -107.24500274658203,-7.561999797821045 C-107.24500274658203,-3.867000102996826 -104.24700164794922,-0.8679999709129333 -100.552001953125,-0.8679999709129333 C-100.552001953125,-0.8679999709129333 52.62799835205078,-0.8460000157356262 52.62799835205078,-0.8460000157356262 C53.36399841308594,-0.8460000157356262 53.96699905395508,-0.25099998712539673 53.96699905395508,0.492000013589859 C53.96699905395508,0.492000013589859 53.96699905395508,17.4060001373291 53.96699905395508,17.4060001373291 C53.96699905395508,19.635000228881836 56.52399826049805,20.886999130249023 58.284000396728516,19.527999877929688 C58.284000396728516,19.527999877929688 105.6989974975586,-17.124000549316406 105.6989974975586,-17.124000549316406 C106.6760025024414,-17.874000549316406 107.19100189208984,-18.95800018310547 107.24500274658203,-20.069000244140625z"/></g><g opacity="1" transform="matrix(1,0,0,1,169.78599548339844,235.64700317382812)"><path stroke-linecap="round" stroke-linejoin="round" fill-opacity="0" class="primary" stroke="rgb(18,19,49)" stroke-opacity="1" stroke-width="10.5" d=" M58.2599983215332,-39.60900115966797 C58.2599983215332,-39.60900115966797 105.6719970703125,-3.4189999103546143 105.6719970703125,-3.4189999103546143 C107.7699966430664,-1.8179999589920044 107.77999877929688,1.3370000123977661 105.69200134277344,2.9509999752044678 C105.69200134277344,2.9509999752044678 58.27299880981445,39.5989990234375 58.27299880981445,39.5989990234375 C56.51300048828125,40.95899963378906 53.95800018310547,39.70500183105469 53.95800018310547,37.48099899291992 C53.95800018310547,37.48099899291992 53.95800018310547,20.56100082397461 53.95800018310547,20.56100082397461 C53.95800018310547,19.82200050354004 53.358001708984375,19.222000122070312 52.61899948120117,19.222000122070312 C52.61899948120117,19.222000122070312 -100.55799865722656,19.200000762939453 -100.55799865722656,19.200000762939453 C-104.25499725341797,19.200000762939453 -107.25199890136719,16.20400047302246 -107.25199890136719,12.506999969482422 C-107.25199890136719,12.506999969482422 -107.25199890136719,-12.510000228881836 -107.25199890136719,-12.510000228881836 C-107.25199890136719,-16.207000732421875 -104.25499725341797,-19.202999114990234 -100.55799865722656,-19.202999114990234 C-100.55799865722656,-19.202999114990234 52.61899948120117,-19.180999755859375 52.61899948120117,-19.180999755859375 C53.358001708984375,-19.180999755859375 53.95800018310547,-19.7810001373291 53.95800018310547,-20.520000457763672 C53.95800018310547,-20.520000457763672 53.95800018310547,-37.48099899291992 53.95800018310547,-37.48099899291992 C53.95800018310547,-39.698001861572266 56.49800109863281,-40.95399856567383 58.2599983215332,-39.60900115966797z"/></g></g><g transform="matrix(1,0,0,1,-49,-21)" opacity="1" style="display: block;"><g opacity="1" transform="matrix(1,0,0,1,373.1159973144531,333.9590148925781)"><path class="tertiary" fill="rgb(58,51,71)" fill-opacity="1" d=" M28.884000778198242,0 C28.884000778198242,15.946000099182129 15.946000099182129,28.884000778198242 0,28.884000778198242 C-15.956000328063965,28.884000778198242 -28.884000778198242,15.946000099182129 -28.884000778198242,0 C-28.884000778198242,-15.946000099182129 -15.956000328063965,-28.884000778198242 0,-28.884000778198242 C15.946000099182129,-28.884000778198242 28.884000778198242,-15.946000099182129 28.884000778198242,0z"/></g><g opacity="1" transform="matrix(1,0,0,1,167.8509979248047,333.9590148925781)"><path class="tertiary" fill="rgb(58,51,71)" fill-opacity="1" d=" M28.95400047302246,0 C28.95400047302246,15.98799991607666 15.993000030517578,28.958999633789062 0.004999999888241291,28.958999633789062 C-15.991999626159668,28.958999633789062 -28.95400047302246,15.987000465393066 -28.95400047302246,0 C-28.95400047302246,-15.987000465393066 -15.991999626159668,-28.958999633789062 0.004999999888241291,-28.958999633789062 C15.993000030517578,-28.958999633789062 28.95400047302246,-15.98799991607666 28.95400047302246,0z"/></g><g opacity="1" transform="matrix(1,0,0,1,373.1159973144531,333.9590148925781)"><path stroke-linecap="round" stroke-linejoin="round" fill-opacity="0" class="primary" stroke="rgb(18,19,49)" stroke-opacity="1" stroke-width="10.5" d=" M28.709999084472656,0 C28.709999084472656,15.850000381469727 15.850000381469727,28.709999084472656 0,28.709999084472656 C-15.859999656677246,28.709999084472656 -28.709999084472656,15.850000381469727 -28.709999084472656,0 C-28.709999084472656,-15.850000381469727 -15.859999656677246,-28.709999084472656 0,-28.709999084472656 C15.850000381469727,-28.709999084472656 28.709999084472656,-15.850000381469727 28.709999084472656,0z"/></g><g opacity="1" transform="matrix(1,0,0,1,167.8509979248047,333.9590148925781)"><path stroke-linecap="round" stroke-linejoin="round" fill-opacity="0" class="primary" stroke="rgb(18,19,49)" stroke-opacity="1" stroke-width="10.5" d=" M28.704999923706055,0 C28.704999923706055,15.850000381469727 15.854999542236328,28.709999084472656 0.004999999888241291,28.709999084472656 C-15.854999542236328,28.709999084472656 -28.704999923706055,15.850000381469727 -28.704999923706055,0 C-28.704999923706055,-15.850000381469727 -15.854999542236328,-28.709999084472656 0.004999999888241291,-28.709999084472656 C15.854999542236328,-28.709999084472656 28.704999923706055,-15.850000381469727 28.704999923706055,0z"/></g><g opacity="0.5" transform="matrix(1,0,0,1,167.8509979248047,333.9590148925781)" style="mix-blend-mode: multiply;"><path class="tertiary" fill="rgb(58,51,71)" fill-opacity="1" d=" M8.17199993133545,0 C8.17199993133545,4.513000011444092 4.513000011444092,8.17199993133545 0,8.17199993133545 C-4.513000011444092,8.17199993133545 -8.17199993133545,4.513000011444092 -8.17199993133545,0 C-8.17199993133545,-4.513000011444092 -4.513000011444092,-8.17199993133545 0,-8.17199993133545 C4.513000011444092,-8.17199993133545 8.17199993133545,-4.513000011444092 8.17199993133545,0z"/></g><g opacity="0.5" transform="matrix(1,0,0,1,373.1159973144531,333.9590148925781)" style="mix-blend-mode: multiply;"><path class="tertiary" fill="rgb(58,51,71)" fill-opacity="1" d=" M8.17199993133545,0 C8.17199993133545,4.513000011444092 4.513000011444092,8.17199993133545 0,8.17199993133545 C-4.513000011444092,8.17199993133545 -8.17199993133545,4.513000011444092 -8.17199993133545,0 C-8.17199993133545,-4.513000011444092 -4.513000011444092,-8.17199993133545 0,-8.17199993133545 C4.513000011444092,-8.17199993133545 8.17199993133545,-4.513000011444092 8.17199993133545,0z"/></g></g></g></g></svg>